<svg width="383" height="125" viewBox="0 0 383 125" fill="none" xmlns="http://www.w3.org/2000/svg">
<path d="M2.12669 46.2072V1.09556H7.08897V22.4914L30.4181 1.09556H36.9271L12.4379 23.2003L37.4426 46.2072H30.4825L7.08897 24.5536V46.2072H2.12669Z" fill="#151515"/>
<path d="M40.9992 46.2072V13.9201H45.7681V46.2072H40.9992ZM43.3837 7.73342C42.5244 7.73342 41.7725 7.41119 41.1281 6.76674C40.4836 6.12229 40.1614 5.37043 40.1614 4.51116C40.1614 3.60893 40.4836 2.85707 41.1281 2.25558C41.7725 1.61113 42.5244 1.2889 43.3837 1.2889C44.2859 1.2889 45.0378 1.61113 45.6392 2.25558C46.2837 2.85707 46.6059 3.60893 46.6059 4.51116C46.6059 5.37043 46.2837 6.12229 45.6392 6.76674C45.0378 7.41119 44.2859 7.73342 43.3837 7.73342Z" fill="#151515"/>
<path d="M66.5965 46.8516C63.8039 46.8516 61.6557 46.1857 60.152 44.8538C58.6483 43.522 57.8964 41.5886 57.8964 39.0538V17.9802H50.9363V13.9201H57.8964V5.73562L62.6009 4.51116V13.9201H72.3321V17.9802H62.6009V37.8293C62.6009 39.5478 62.9876 40.7938 63.7609 41.5671C64.5342 42.2975 65.8017 42.6627 67.5632 42.6627C68.4654 42.6627 69.2602 42.5982 69.9476 42.4693C70.678 42.3405 71.4514 42.1256 72.2677 41.8249V46.0138C71.4514 46.3146 70.5276 46.5294 69.4965 46.6583C68.5084 46.7872 67.5417 46.8516 66.5965 46.8516Z" fill="#151515"/>
<path d="M91.7603 46.7872C88.7099 46.7872 85.9388 46.0568 83.4469 44.596C80.955 43.0923 78.9787 41.073 77.5179 38.5382C76.0572 36.0033 75.3268 33.1678 75.3268 30.0314C75.3268 26.8951 76.0572 24.081 77.5179 21.5891C78.9787 19.0543 80.955 17.035 83.4469 15.5313C85.9388 14.0276 88.7099 13.2757 91.7603 13.2757C94.1233 13.2757 96.4004 13.7268 98.5915 14.629C100.783 15.4883 102.716 16.7343 104.392 18.3669L101.363 21.8469C100.074 20.4721 98.5915 19.441 96.9159 18.7535C95.2833 18.0232 93.5863 17.658 91.8247 17.658C89.6336 17.658 87.6358 18.2165 85.8314 19.3335C84.0698 20.4076 82.6521 21.8899 81.578 23.7803C80.5469 25.6277 80.0313 27.7114 80.0313 30.0314C80.0313 32.3515 80.5469 34.4567 81.578 36.3471C82.6521 38.2374 84.0913 39.7412 85.8958 40.8582C87.7003 41.9323 89.6981 42.4693 91.8892 42.4693C93.6507 42.4693 95.3048 42.1256 96.8515 41.4382C98.4411 40.7508 99.9234 39.7412 101.298 38.4093L104.263 41.6316C102.544 43.2642 100.611 44.5316 98.4626 45.4338C96.3144 46.3361 94.0803 46.7872 91.7603 46.7872Z" fill="#151515"/>
<path d="M109.85 46.2072V1.09556L114.619 0V17.7224C117.154 14.7579 120.548 13.2757 124.801 13.2757C127.25 13.2757 129.398 13.8127 131.246 14.8868C133.136 15.9179 134.597 17.3787 135.628 19.2691C136.702 21.1165 137.239 23.2862 137.239 25.7781V46.2072H132.534V26.7447C132.534 23.8662 131.718 21.6106 130.086 19.978C128.496 18.3024 126.305 17.4646 123.512 17.4646C121.579 17.4646 119.86 17.8943 118.357 18.7535C116.853 19.6128 115.607 20.8373 114.619 22.4269V46.2072H109.85Z" fill="#151515"/>
<path d="M160.364 46.7872C157.27 46.7872 154.456 46.0568 151.921 44.596C149.429 43.0923 147.432 41.073 145.928 38.5382C144.467 36.0033 143.737 33.1678 143.737 30.0314C143.737 26.9381 144.446 24.1454 145.864 21.6536C147.281 19.1187 149.193 17.1209 151.599 15.6602C154.005 14.1564 156.69 13.4046 159.655 13.4046C162.533 13.4046 165.111 14.1564 167.388 15.6602C169.708 17.1209 171.534 19.1187 172.866 21.6536C174.241 24.1454 174.928 26.9381 174.928 30.0314V31.5137H148.441C148.699 33.6189 149.365 35.5093 150.439 37.1848C151.556 38.8604 152.995 40.1923 154.757 41.1804C156.518 42.1256 158.452 42.5982 160.557 42.5982C162.233 42.5982 163.865 42.3405 165.455 41.8249C167.044 41.3093 168.376 40.579 169.45 39.6338L172.415 42.7916C170.61 44.1234 168.72 45.1331 166.744 45.8205C164.81 46.4649 162.684 46.7872 160.364 46.7872ZM148.57 27.7114H170.159C169.902 25.7781 169.257 24.0595 168.226 22.5558C167.238 21.0091 165.992 19.8061 164.488 18.9469C162.984 18.0446 161.33 17.5935 159.526 17.5935C157.678 17.5935 155.981 18.0232 154.435 18.8824C152.888 19.7417 151.599 20.9447 150.568 22.4914C149.537 23.9951 148.871 25.7351 148.57 27.7114Z" fill="#151515"/>
<path d="M181.595 46.2072V13.9201H186.364V17.7224C188.899 14.7579 192.293 13.2757 196.547 13.2757C198.995 13.2757 201.144 13.8127 202.991 14.8868C204.881 15.9179 206.342 17.3787 207.373 19.2691C208.447 21.1165 208.984 23.2862 208.984 25.7781V46.2072H204.28V26.7447C204.28 23.8662 203.464 21.6106 201.831 19.978C200.241 18.3024 198.05 17.4646 195.258 17.4646C193.324 17.4646 191.606 17.8943 190.102 18.7535C188.598 19.6128 187.352 20.8373 186.364 22.4269V46.2072H181.595Z" fill="#151515"/>
<path d="M23.3936 111.361C20.1284 111.361 17.078 110.781 14.2424 109.621C11.4068 108.418 8.91491 106.764 6.76674 104.659C4.61857 102.511 2.94299 100.04 1.74002 97.2477C0.580006 94.4121 0 91.3617 0 88.0965C0 84.8313 0.580006 81.8024 1.74002 79.0097C2.94299 76.1742 4.61857 73.7038 6.76674 71.5985C8.91491 69.4504 11.4068 67.7963 14.2424 66.6363C17.078 65.4333 20.1284 64.8318 23.3936 64.8318C25.7566 64.8318 28.0122 65.1326 30.1603 65.734C32.3515 66.2926 34.3707 67.1304 36.2182 68.2474C38.1086 69.3215 39.7841 70.6534 41.2449 72.243L37.9582 75.723C36.1967 73.7038 34.027 72.1571 31.4492 71.083C28.8714 69.9659 26.1862 69.4074 23.3936 69.4074C20.7728 69.4074 18.3454 69.88 16.1113 70.8252C13.8772 71.7704 11.9223 73.1023 10.2468 74.8208C8.61417 76.4964 7.32526 78.4727 6.38007 80.7498C5.47784 82.9839 5.02672 85.4328 5.02672 88.0965C5.02672 90.7173 5.47784 93.1662 6.38007 95.4432C7.32526 97.7203 8.63565 99.7181 10.3112 101.437C11.9868 103.112 13.9416 104.423 16.1757 105.368C18.4528 106.313 20.9017 106.786 23.5225 106.786C26.3151 106.786 28.9788 106.249 31.5137 105.174C34.0485 104.057 36.1752 102.532 37.8937 100.599L41.116 103.95C39.6123 105.497 37.9152 106.829 36.0248 107.946C34.1774 109.063 32.1796 109.922 30.0314 110.523C27.8833 111.082 25.6706 111.361 23.3936 111.361Z" fill="#151515"/>
<path d="M57.9155 111.232C55.5525 111.232 53.4688 110.824 51.6644 110.008C49.9029 109.192 48.5065 108.053 47.4754 106.592C46.4873 105.132 45.9932 103.434 45.9932 101.501C45.9932 98.4507 47.1532 96.0447 49.4732 94.2832C51.7932 92.5217 54.9296 91.641 58.8822 91.641C62.3622 91.641 65.5201 92.3714 68.3556 93.8321V89.5787C68.3556 87.0009 67.6253 85.0676 66.1645 83.7787C64.7038 82.4468 62.5771 81.7809 59.7844 81.7809C58.1948 81.7809 56.5837 82.0172 54.9511 82.4898C53.3614 82.9194 51.5999 83.6283 49.6666 84.6165L47.8621 80.9431C50.1821 79.826 52.3303 79.0097 54.3066 78.4942C56.2829 77.9786 58.2592 77.7208 60.2356 77.7208C64.3171 77.7208 67.4534 78.6875 69.6445 80.6209C71.8786 82.5542 72.9957 85.3254 72.9957 88.9343V110.652H68.3556V107.494C66.8949 108.74 65.2838 109.686 63.5223 110.33C61.8037 110.932 59.9348 111.232 57.9155 111.232ZM50.5688 101.372C50.5688 103.177 51.3206 104.659 52.8244 105.819C54.371 106.936 56.3474 107.494 58.7533 107.494C60.6867 107.494 62.4482 107.194 64.0378 106.592C65.6275 105.991 67.0667 105.046 68.3556 103.757V97.6988C67.0238 96.7966 65.606 96.1522 64.1023 95.7655C62.5985 95.3358 60.9015 95.121 59.0111 95.121C56.4333 95.121 54.371 95.701 52.8244 96.861C51.3206 97.9781 50.5688 99.4818 50.5688 101.372Z" fill="#151515"/>
<path d="M80.9627 110.652V65.5407L85.7317 64.4451V81.7809C88.4813 79.1601 91.9399 77.8497 96.1073 77.8497C99.1577 77.8497 101.907 78.6016 104.356 80.1053C106.805 81.5661 108.739 83.5424 110.156 86.0343C111.617 88.5261 112.348 91.3402 112.348 94.4766C112.348 97.6129 111.617 100.448 110.156 102.983C108.739 105.475 106.805 107.473 104.356 108.977C101.907 110.437 99.1363 111.168 96.0429 111.168C94.1525 111.168 92.3051 110.846 90.5006 110.201C88.7391 109.557 87.128 108.633 85.6672 107.43V110.652H80.9627ZM95.6562 106.979C97.9333 106.979 99.974 106.442 101.779 105.368C103.583 104.251 105.001 102.769 106.032 100.921C107.106 99.0307 107.643 96.904 107.643 94.541C107.643 92.178 107.106 90.0513 106.032 88.1609C105.001 86.2706 103.583 84.7883 101.779 83.7142C99.974 82.5972 97.9333 82.0387 95.6562 82.0387C93.6369 82.0387 91.7465 82.4468 89.985 83.2631C88.2665 84.0365 86.8487 85.132 85.7317 86.5498V102.532C86.8487 103.907 88.288 105.003 90.0495 105.819C91.811 106.592 93.6799 106.979 95.6562 106.979Z" fill="#151515"/>
<path d="M118.975 110.652V78.3653H123.744V110.652H118.975ZM121.36 72.1786C120.5 72.1786 119.749 71.8563 119.104 71.2119C118.46 70.5674 118.137 69.8156 118.137 68.9563C118.137 68.0541 118.46 67.3022 119.104 66.7007C119.749 66.0563 120.5 65.734 121.36 65.734C122.262 65.734 123.014 66.0563 123.615 66.7007C124.26 67.3022 124.582 68.0541 124.582 68.9563C124.582 69.8156 124.26 70.5674 123.615 71.2119C123.014 71.8563 122.262 72.1786 121.36 72.1786Z" fill="#151515"/>
<path d="M131.877 110.652V78.3653H136.646V82.1676C139.181 79.2031 142.575 77.7208 146.828 77.7208C149.277 77.7208 151.425 78.2579 153.273 79.332C155.163 80.3631 156.624 81.8239 157.655 83.7142C158.729 85.5617 159.266 87.7313 159.266 90.2232V110.652H154.562V91.1899C154.562 88.3113 153.745 86.0557 152.113 84.4231C150.523 82.7476 148.332 81.9098 145.539 81.9098C143.606 81.9098 141.887 82.3394 140.384 83.1987C138.88 84.0579 137.634 85.2824 136.646 86.872V110.652H131.877Z" fill="#151515"/>
<path d="M182.391 111.232C179.297 111.232 176.483 110.502 173.948 109.041C171.457 107.537 169.459 105.518 167.955 102.983C166.494 100.448 165.764 97.6129 165.764 94.4766C165.764 91.3832 166.473 88.5906 167.891 86.0987C169.308 83.5639 171.22 81.5661 173.626 80.1053C176.032 78.6016 178.717 77.8497 181.682 77.8497C184.56 77.8497 187.138 78.6016 189.415 80.1053C191.735 81.5661 193.561 83.5639 194.893 86.0987C196.268 88.5906 196.955 91.3832 196.955 94.4766V95.9588H170.468C170.726 98.064 171.392 99.9544 172.466 101.63C173.583 103.306 175.023 104.637 176.784 105.626C178.546 106.571 180.479 107.043 182.584 107.043C184.26 107.043 185.892 106.786 187.482 106.27C189.072 105.754 190.403 105.024 191.478 104.079L194.442 107.237C192.638 108.569 190.747 109.578 188.771 110.266C186.838 110.91 184.711 111.232 182.391 111.232ZM170.597 92.1566H192.186C191.929 90.2232 191.284 88.5047 190.253 87.0009C189.265 85.4543 188.019 84.2513 186.515 83.392C185.012 82.4898 183.357 82.0387 181.553 82.0387C179.706 82.0387 178.009 82.4683 176.462 83.3276C174.915 84.1868 173.626 85.3898 172.595 86.9365C171.564 88.4402 170.898 90.1802 170.597 92.1566Z" fill="#151515"/>
<path d="M215.374 111.297C212.582 111.297 210.433 110.631 208.93 109.299C207.426 107.967 206.674 106.034 206.674 103.499V82.4253H199.714V78.3653H206.674V70.1808L211.379 68.9563V78.3653H221.11V82.4253H211.379V102.274C211.379 103.993 211.765 105.239 212.539 106.012C213.312 106.743 214.579 107.108 216.341 107.108C217.243 107.108 218.038 107.043 218.725 106.914C219.456 106.786 220.229 106.571 221.045 106.27V110.459C220.229 110.76 219.305 110.975 218.274 111.103C217.286 111.232 216.319 111.297 215.374 111.297Z" fill="#151515"/>
<path d="M262.166 111.361C258.901 111.361 255.851 110.76 253.015 109.557C250.223 108.354 247.752 106.7 245.604 104.594C243.499 102.446 241.845 99.9759 240.642 97.1833C239.439 94.3477 238.837 91.3188 238.837 88.0965C238.837 84.8743 239.417 81.8668 240.577 79.0742C241.78 76.2386 243.434 73.7682 245.539 71.663C247.688 69.5148 250.158 67.8392 252.951 66.6363C255.786 65.4333 258.837 64.8318 262.102 64.8318C265.582 64.8318 268.869 65.4763 271.962 66.7652C275.055 68.0541 277.698 69.88 279.889 72.243L276.538 75.6586C274.819 73.6823 272.671 72.1571 270.093 71.083C267.558 69.9659 264.895 69.4074 262.102 69.4074C259.524 69.4074 257.118 69.88 254.884 70.8252C252.693 71.7704 250.76 73.1023 249.084 74.8208C247.451 76.4964 246.162 78.4727 245.217 80.7498C244.315 82.9839 243.864 85.4328 243.864 88.0965C243.864 90.7173 244.315 93.1662 245.217 95.4432C246.162 97.7203 247.451 99.7181 249.084 101.437C250.76 103.112 252.693 104.423 254.884 105.368C257.118 106.313 259.524 106.786 262.102 106.786C265.152 106.786 267.902 106.12 270.351 104.788C272.843 103.456 274.841 101.63 276.344 99.31C277.891 96.9899 278.793 94.3692 279.051 91.4476H262.875V87.0654H284.078V89.0632C284.078 92.1995 283.519 95.121 282.402 97.8277C281.285 100.534 279.738 102.897 277.762 104.917C275.786 106.936 273.466 108.526 270.802 109.686C268.138 110.803 265.26 111.361 262.166 111.361Z" fill="#151515"/>
<path d="M303.223 111.297C300.775 111.297 298.605 110.781 296.714 109.75C294.824 108.676 293.342 107.215 292.268 105.368C291.237 103.477 290.721 101.286 290.721 98.7944V78.3653H295.426V97.8277C295.426 100.706 296.242 102.983 297.874 104.659C299.507 106.292 301.698 107.108 304.448 107.108C306.381 107.108 308.1 106.678 309.603 105.819C311.15 104.917 312.396 103.671 313.341 102.081V78.3653H318.11V110.652H313.341V106.914C310.806 109.836 307.434 111.297 303.223 111.297Z" fill="#151515"/>
<path d="M327.573 124.444C326.971 124.444 326.391 124.401 325.833 124.315C325.317 124.272 324.887 124.207 324.544 124.121V119.804C325.274 119.975 326.176 120.061 327.25 120.061C330.086 120.061 332.234 118.386 333.695 115.035L335.628 110.588L322.481 78.3653H327.766L338.206 104.852L349.484 78.3653H354.64L338.528 115.679C337.626 117.741 336.659 119.417 335.628 120.706C334.597 121.995 333.416 122.94 332.084 123.541C330.795 124.143 329.291 124.444 327.573 124.444Z" fill="#151515"/>
<path d="M369.382 111.297C366.719 111.297 364.205 110.867 361.842 110.008C359.522 109.106 357.503 107.86 355.784 106.27L358.684 103.177C360.188 104.551 361.842 105.626 363.647 106.399C365.451 107.129 367.299 107.494 369.189 107.494C371.767 107.494 373.872 106.957 375.505 105.883C377.137 104.809 377.954 103.413 377.954 101.694C377.954 100.277 377.46 99.1811 376.471 98.4077C375.526 97.5914 374.022 97.0329 371.96 96.7322L366.353 95.9588C363.131 95.4862 360.725 94.5195 359.136 93.0588C357.589 91.598 356.816 89.6217 356.816 87.1298C356.816 85.3254 357.331 83.7142 358.362 82.2964C359.393 80.8787 360.811 79.7616 362.616 78.9453C364.463 78.129 366.568 77.7208 368.931 77.7208C371.294 77.7208 373.507 78.0645 375.569 78.752C377.631 79.4394 379.651 80.5135 381.627 81.9742L379.114 85.1965C377.309 83.9505 375.548 83.0483 373.829 82.4898C372.154 81.8883 370.435 81.5875 368.673 81.5875C366.439 81.5875 364.635 82.0816 363.26 83.0698C361.885 84.0579 361.198 85.3468 361.198 86.9365C361.198 88.3972 361.67 89.5143 362.616 90.2876C363.561 91.018 365.086 91.5336 367.191 91.8343L372.798 92.6077C376.02 93.0373 378.426 93.9825 380.016 95.4432C381.648 96.904 382.465 98.9018 382.465 101.437C382.465 103.284 381.885 104.96 380.725 106.463C379.565 107.967 377.997 109.149 376.02 110.008C374.087 110.867 371.874 111.297 369.382 111.297Z" fill="#151515"/>
</svg>
