<svg width="48" height="48" viewBox="0 0 48 48" fill="none" xmlns="http://www.w3.org/2000/svg">
<circle cx="24" cy="24" r="24" fill="#F37021"/>
<path d="M29.8732 19.5225C29.8793 19.5252 29.8887 19.5311 29.9016 19.542L29.9074 19.5459C30.3417 19.905 31.1186 20.5487 31.7394 21.2637C32.0501 21.6215 32.3036 21.9777 32.4572 22.3066C32.6126 22.6394 32.64 22.8892 32.5891 23.0713C32.5492 23.2054 32.4497 23.3206 32.2473 23.4355C32.029 23.5595 31.7798 23.6372 31.4855 23.7451C30.4478 24.1212 29.3845 24.429 28.3049 24.668L27.84 24.7666C27.3037 24.8754 26.5937 25.0159 26.0724 24.9434C25.8176 24.9079 25.7019 24.8331 25.6535 24.7715C25.616 24.7237 25.5434 24.5866 25.6252 24.2197C25.6837 23.9623 25.8223 23.7016 26.0207 23.4268C26.2217 23.1484 26.454 22.8938 26.6926 22.6172L26.6955 22.6143C27.6263 21.5195 28.5313 20.4208 29.591 19.5654L29.6799 19.5791L29.8068 19.5264C29.8295 19.5171 29.8468 19.5164 29.8566 19.5176C29.8615 19.5182 29.8671 19.5197 29.8732 19.5225Z" stroke="#F6F3EC"/>
<path d="M27.1423 27.7793C27.8396 27.8553 28.665 28.1853 29.1072 28.3389V28.3379C29.3936 28.4384 29.8064 28.5445 30.196 28.6553C30.6058 28.7718 31.0278 28.9042 31.4001 29.0693C31.7785 29.2372 32.0619 29.4213 32.2322 29.6191C32.3846 29.7963 32.4493 29.9841 32.4011 30.2373C32.2936 30.7867 31.8884 31.458 31.3142 32.0293C30.7473 32.5934 30.0958 32.9791 29.5583 33.0713H29.3484L29.2429 33.1758C29.2416 33.1765 29.2403 33.1771 29.239 33.1777C28.5861 32.6363 28.1009 31.7827 27.6345 30.9375L27.6335 30.9355L27.2546 30.2783C27.1259 30.0562 26.9961 29.8286 26.8728 29.5889C26.6301 29.1168 26.454 28.6768 26.405 28.2949H26.406C26.3594 27.9282 26.4646 27.8624 26.4929 27.8438C26.5818 27.7852 26.7844 27.7404 27.1423 27.7793Z" stroke="#F6F3EC"/>
<path d="M22.879 29.0753C23.1887 28.9469 23.3446 28.9714 23.4122 28.9972C23.4789 29.0227 23.5593 29.0876 23.6378 29.254C23.8078 29.6145 23.8467 30.1908 23.8419 30.7101C23.8276 31.9338 23.789 33.1574 23.6984 34.3683V34.3712C23.6788 34.6592 23.6782 34.8658 23.632 35.0646C23.5912 35.2392 23.5287 35.3336 23.4337 35.3966C23.2987 35.4855 23.0287 35.5281 22.6222 35.4796C22.2538 35.4356 21.8721 35.3302 21.5812 35.2404C21.5516 35.2271 21.5098 35.2099 21.464 35.1984L21.4464 35.1945L21.4288 35.1915L20.9718 35.0968C20.5131 34.9863 20.0587 34.8274 19.6866 34.6163C19.2025 34.3417 18.9394 34.0266 18.88 33.6808L18.9103 33.6476L18.9386 33.5948L19.0284 33.4415C19.1944 33.2132 19.3873 33.0076 19.6085 32.7667L19.6339 32.7384L19.6544 32.7072C20.011 32.1769 20.3972 31.6645 20.8068 31.17C21.1443 30.7628 21.4392 30.35 21.8136 29.9318C22.1318 29.5765 22.4419 29.2973 22.7482 29.1368L22.879 29.0753Z" stroke="#F6F3EC"/>
<path d="M20.5489 12.7686C21.656 12.4043 22.2412 12.4518 22.5694 12.667C22.8576 12.8561 23.0968 13.272 23.2266 14.1162L23.2755 14.5039C23.4385 16.1888 23.5249 17.8849 23.5342 19.5791L23.5333 20.3057C23.5319 20.5302 23.5465 20.786 23.5596 21.0322C23.5732 21.2853 23.5855 21.5385 23.584 21.7861C23.5811 22.3024 23.5156 22.6935 23.3585 22.9355L23.3077 23.0127L23.3028 23.0088L23.2852 22.998L23.2589 22.9678L23.2276 22.9414L22.8223 22.5967C20.8026 20.8173 18.8803 18.2367 17.8624 15.8545L17.8614 15.8535C17.6883 15.4495 17.6788 15.1157 17.7559 14.832C17.8353 14.5402 18.0183 14.2588 18.296 13.9912C18.8609 13.4468 19.7382 13.0346 20.5479 12.7686H20.5489Z" stroke="#F6F3EC"/>
<path d="M16.893 23.0254C17.2033 23.0044 17.6096 23.1366 18.0844 23.377C18.5629 23.6191 18.9764 23.8953 19.3901 24.1318V24.1328C20.3829 24.7043 21.3692 25.3167 22.0424 26.1309L22.101 26.2021L22.1713 26.2412L22.1723 26.2422C22.1741 26.2464 22.1772 26.2544 22.1801 26.2676L22.1811 26.2695C22.2355 26.5111 22.1788 26.6184 22.0961 26.708C21.9742 26.8399 21.7609 26.9586 21.4262 27.1113C20.572 27.4961 19.6833 27.8241 18.7807 28.1084L17.8764 28.3779C17.4588 28.4936 17.0862 28.6389 16.6674 28.7109C16.2619 28.7806 15.9915 28.7419 15.8149 28.6074L15.8139 28.6064L15.7241 28.5186C15.639 28.4156 15.5698 28.2654 15.519 28.0547C15.4849 27.9132 15.4639 27.7653 15.4477 27.6133L15.4077 27.1465C15.3577 26.5169 15.3822 25.4477 15.6313 24.5391C15.892 23.5879 16.3158 23.0685 16.894 23.0264L16.893 23.0254Z" stroke="#F6F3EC"/>
</svg>
