<svg width="22" height="25" viewBox="0 0 22 25" fill="none" xmlns="http://www.w3.org/2000/svg">
<path d="M10.56 7.7583C10.2188 7.81019 9.8992 7.93563 9.63209 8.1225C9.47497 8.2272 9.3471 8.35991 9.25761 8.51118C9.16812 8.66245 9.11921 8.82855 9.11437 8.99763C9.11334 9.14684 9.15616 9.29393 9.23897 9.4257C9.32179 9.55747 9.44201 9.66978 9.58885 9.75257C9.88436 9.93004 10.2125 10.065 10.56 10.1522L10.56 7.7583Z" fill="#F37021"/>
<path d="M12.8856 12.5027C12.8867 12.3535 12.8438 12.2064 12.761 12.0746C12.6782 11.9428 12.558 11.8305 12.4112 11.7477C12.1156 11.5703 11.7875 11.4353 11.44 11.3481V13.742C11.7812 13.6901 12.1008 13.5647 12.3679 13.3778C12.525 13.2731 12.6529 13.1404 12.7424 12.9891C12.8319 12.8379 12.8808 12.6718 12.8856 12.5027Z" fill="#F37021"/>
<path d="M21.6316 17.5576C21.3769 17.4241 21.0872 17.3457 20.7881 17.3291C20.4891 17.3125 20.1898 17.3584 19.9166 17.4627L15.616 19.1104C15.7393 19.2855 15.82 19.4796 15.8533 19.6815C15.8986 19.9438 15.8615 20.2115 15.7457 20.4578C15.6298 20.7042 15.4393 20.9204 15.1933 21.0847C14.8736 21.3002 14.477 21.4178 14.0681 21.4182C13.971 21.4183 13.874 21.4116 13.7781 21.3984L7.73005 20.5651C7.62448 20.5504 7.53012 20.5009 7.46769 20.4274C7.40526 20.354 7.37986 20.2626 7.39707 20.1733C7.41427 20.084 7.47268 20.0041 7.55947 19.9512C7.64626 19.8983 7.75433 19.8767 7.85996 19.8911L13.8567 20.7173C14.1613 20.7496 14.4691 20.6831 14.718 20.5311C14.8465 20.4374 14.9446 20.3174 15.0028 20.1827C15.0611 20.0479 15.0776 19.9027 15.0508 19.761C15.024 19.6193 14.9548 19.4858 14.8498 19.3731C14.7447 19.2604 14.6073 19.1722 14.4506 19.1171L9.55171 17.3926C9.42621 17.3484 9.29162 17.3257 9.15568 17.3257H4.31186C4.08519 17.3257 3.86485 17.3889 3.68497 17.5055L2.65131 18.1754V18.0333C2.6513 17.9007 2.58902 17.7736 2.47816 17.6799C2.3673 17.5862 2.21694 17.5335 2.06016 17.5335H0.591145C0.513514 17.5335 0.436644 17.5464 0.364922 17.5716C0.2932 17.5967 0.228033 17.6335 0.17314 17.6799C0.118247 17.7263 0.0747031 17.7814 0.0449957 17.842C0.0152884 17.9027 -1.24547e-06 17.9677 5.41499e-10 18.0333V22.9418C-3.32213e-06 23.0074 0.0152845 23.0724 0.0449906 23.1331C0.0746968 23.1937 0.11824 23.2488 0.173133 23.2952C0.228026 23.3416 0.293194 23.3784 0.364917 23.4035C0.436639 23.4287 0.513512 23.4416 0.591145 23.4416H2.06016C2.21695 23.4416 2.36731 23.3889 2.47817 23.2952C2.58903 23.2015 2.65131 23.0743 2.65131 22.9418V22.662L9.47144 23.9711C9.91933 24.057 10.3832 24.065 10.8349 23.9945C11.2865 23.924 11.7165 23.7765 12.0985 23.5611L21.6355 18.6595C21.7472 18.6017 21.8394 18.5206 21.9032 18.4239C21.9671 18.3273 22.0004 18.2184 22 18.1077C21.9996 17.9969 21.9655 17.8882 21.901 17.7919C21.8364 17.6955 21.7437 17.6149 21.6316 17.5576Z" fill="#F37021"/>
<path d="M14.3176 3.71163C15.2162 2.8862 16.4863 1.45652 15.5101 0.183628C15.4639 0.123375 15.394 0.0788318 15.3127 0.0578213C15.2314 0.0368107 15.144 0.0406758 15.0658 0.0687377C13.9329 0.479207 13.2326 0.725254 12.0997 0.314804L11.3953 0.0244304C11.3508 0.00831158 11.3029 0 11.2545 0C11.2061 0 11.1582 0.00831158 11.1137 0.0244304L10.4093 0.314804C9.27642 0.725254 8.57614 0.479207 7.44322 0.0687377C7.365 0.0406758 7.27758 0.0368107 7.19632 0.0578213C7.11506 0.0788318 7.04515 0.123375 6.99887 0.183628C6.02274 1.45652 7.29286 2.8862 8.19143 3.71163H14.3176Z" fill="#F37021"/>
<path d="M11 16.9832C19.3811 16.9832 19.4971 14.2951 18.5985 10.5946C17.9165 7.78578 16.2745 4.95564 13.9815 4.51416H8.01849C5.72552 4.95564 4.08354 7.78578 3.40148 10.5946C2.50287 14.2951 2.61889 16.9832 11 16.9832ZM8.90123 10.5088C8.61657 10.3366 8.38472 10.1095 8.225 9.84643C8.06528 9.58334 7.9823 9.29183 7.98297 8.99619C7.9865 8.68837 8.07063 8.38503 8.22932 8.10789C8.38802 7.83075 8.61735 7.58668 8.90088 7.39316C9.37347 7.06161 9.94981 6.85291 10.56 6.79233V6.2907C10.56 6.19218 10.6064 6.09769 10.6889 6.02803C10.7714 5.95836 10.8833 5.91922 11 5.91922C11.1167 5.91922 11.2286 5.95836 11.3111 6.02803C11.3936 6.09769 11.44 6.19218 11.44 6.2907V6.77553C12.2194 6.86182 12.9767 7.05592 13.6814 7.35005C13.7495 7.37541 13.811 7.41188 13.8624 7.45736C13.9138 7.50285 13.9541 7.55645 13.9809 7.6151C14.0077 7.67375 14.0205 7.73629 14.0187 7.79913C14.0168 7.86198 14.0002 7.92389 13.9699 7.98132C13.9397 8.03875 13.8963 8.09057 13.8422 8.1338C13.7882 8.17704 13.7245 8.21084 13.655 8.23326C13.5854 8.25569 13.5113 8.2663 13.4369 8.26449C13.3625 8.26267 13.2892 8.24847 13.2213 8.2227C12.6579 7.99015 12.0581 7.82676 11.44 7.7375V10.3501C12.0365 10.4706 12.5998 10.6874 13.0988 10.9885C13.3834 11.1607 13.6153 11.3878 13.775 11.6509C13.9347 11.914 14.0177 12.2055 14.017 12.5011C14.0135 12.8089 13.9294 13.1123 13.7707 13.3894C13.612 13.6666 13.3827 13.9106 13.0991 14.1042C12.6264 14.4355 12.0501 14.6439 11.44 14.7044V15.2066C11.44 15.3051 11.3936 15.3996 11.3111 15.4693C11.2286 15.5389 11.1167 15.5781 11 15.5781C10.8833 15.5781 10.7714 15.5389 10.6889 15.4693C10.6064 15.3996 10.56 15.3051 10.56 15.2066V14.7217C9.7806 14.6355 9.02331 14.4414 8.31862 14.1473C8.25075 14.1218 8.18951 14.0852 8.13837 14.0397C8.08723 13.9942 8.04721 13.9407 8.02059 13.8821C7.99396 13.8236 7.98126 13.7611 7.9832 13.6984C7.98514 13.6357 8.00169 13.574 8.0319 13.5167C8.06212 13.4594 8.1054 13.4077 8.15928 13.3645C8.21316 13.3213 8.27659 13.2875 8.34594 13.265C8.41529 13.2426 8.4892 13.2318 8.56346 13.2335C8.63772 13.2351 8.71087 13.2491 8.77873 13.2746C9.34209 13.5072 9.94193 13.6705 10.56 13.7598V11.1472C9.96351 11.0267 9.40022 10.8099 8.90123 10.5088Z" fill="#F37021"/>
</svg>
