<svg width="20" height="26" viewBox="0 0 20 26" fill="none" xmlns="http://www.w3.org/2000/svg">
<path d="M13.941 6.70241C12.7078 6.86327 11.3941 6.9437 10 6.9437C8.63271 6.9437 7.29222 6.86327 6.05898 6.70241C3.19035 9.14209 0 13.2172 0 16.9169C0 22.7346 4.47721 25.4692 10 25.4692C15.5228 25.4692 20 22.7346 20 16.9169C20 13.1903 16.8097 9.14209 13.941 6.70241ZM10.7507 20.3753V21.4745C10.7507 21.5818 10.6702 21.689 10.5362 21.689H9.46381C9.35657 21.689 9.24933 21.6086 9.24933 21.4745V20.4021C8.17694 20.3217 7.29222 19.4906 7.18499 18.4182C7.18499 18.311 7.29222 18.2038 7.39946 18.2038H8.47185C8.57909 18.2038 8.65952 18.2574 8.68633 18.3646C8.73995 18.6863 9.06166 18.9276 9.38338 18.9276H10.3217C10.8847 18.9276 11.3941 18.5255 11.4477 17.9893C11.5281 17.3458 11.0188 16.8097 10.4021 16.8097H9.70509C8.39142 16.8097 7.2118 15.8445 7.07775 14.504C6.9437 13.1099 7.93566 11.9303 9.27614 11.7426V10.6702C9.27614 10.563 9.38338 10.4558 9.49062 10.4558H10.563C10.6702 10.4558 10.7775 10.5362 10.7775 10.6702V11.7426C11.8499 11.8231 12.7346 12.6542 12.8418 13.7265C12.8418 13.8338 12.7614 13.941 12.6273 13.941H11.555C11.4745 13.941 11.3673 13.8874 11.3405 13.7802C11.2601 13.4584 10.9651 13.2172 10.6166 13.2172H9.67828C9.11528 13.2172 8.63271 13.6193 8.55228 14.1555C8.49866 14.7989 8.98123 15.3351 9.59785 15.3351H10.4021C11.9035 15.3351 13.0831 16.5952 12.9223 18.1233C12.815 19.3029 11.8767 20.1877 10.7507 20.3753ZM10 5.36193C11.2869 5.36193 12.5201 5.2815 13.6461 5.14745C14.3968 3.53887 15.067 1.90349 15.067 1.17962C15.067 0.107239 13.6997 -0.455764 12.8954 0.697051C11.8231 2.19839 11.3405 0 10.1072 0C8.87399 0 8.23056 2.03753 7.26541 0.670241C6.3807 -0.563003 4.90617 0.187668 4.90617 1.15281C4.90617 2.09115 5.52279 3.67292 6.21984 5.14745C7.37265 5.2815 8.65952 5.36193 10 5.36193Z" fill="#F37021"/>
</svg>
