<svg width="20" height="19" viewBox="0 0 20 19" fill="none" xmlns="http://www.w3.org/2000/svg">
<path d="M8.65448 0.508954C9.037 -0.16969 10.0143 -0.169691 10.3968 0.508954L12.7923 4.75911C12.9351 5.01229 13.1808 5.19086 13.4657 5.24834L18.2481 6.21329C19.0118 6.36737 19.3138 7.29681 18.7865 7.87031L15.4847 11.462C15.288 11.676 15.1941 11.9649 15.2275 12.2536L15.7876 17.1001C15.877 17.874 15.0864 18.4484 14.378 18.1242L9.9418 16.0938C9.67754 15.9729 9.37373 15.9729 9.10947 16.0938L4.67324 18.1242C3.96488 18.4484 3.17425 17.874 3.26369 17.1001L3.82381 12.2536C3.85718 11.9649 3.7633 11.676 3.56661 11.462L0.264742 7.87031C-0.262484 7.29681 0.03951 6.36737 0.803142 6.21329L5.58555 5.24834C5.87043 5.19086 6.11622 5.01229 6.25892 4.75911L8.65448 0.508954Z" fill="#FFD80C"/>
</svg>
