<svg width="24" height="24" viewBox="0 0 24 24" fill="none" xmlns="http://www.w3.org/2000/svg">
<path fill-rule="evenodd" clip-rule="evenodd" d="M11.875 0C5.32079 0 0 5.32079 0 11.875C0 18.4292 5.32079 23.75 11.875 23.75C18.4292 23.75 23.75 18.4292 23.75 11.875C23.75 5.32079 18.4292 0 11.875 0ZM12.6667 11.5971C12.6667 10.3756 12.6667 5.54167 12.6667 5.54167C12.6667 5.10467 12.312 4.75 11.875 4.75C11.438 4.75 11.0833 5.10467 11.0833 5.54167V11.5971C11.0833 11.9565 11.206 12.3057 11.4301 12.5867C12.0927 13.414 14.4234 16.3281 14.4234 16.3281C14.6965 16.6693 15.1953 16.7248 15.5365 16.4516C15.8777 16.1785 15.9331 15.6798 15.66 15.3385L12.6667 11.5971Z" fill="#F37021"/>
</svg>
