<svg width="23" height="20" viewBox="0 0 23 20" fill="none" xmlns="http://www.w3.org/2000/svg">
<path d="M5.55644 13.8218L13.3344 6.04376C14.3104 5.06776 15.7164 4.89076 16.6934 5.86676C17.6694 6.84276 17.4934 8.24976 16.5164 9.22576L8.38444 17.3578C6.97044 18.7718 4.14144 18.7718 2.37444 17.0038C0.606438 15.2358 0.606438 12.4078 2.02044 10.9938L10.1524 2.86176C11.3752 1.66128 13.0225 0.992195 14.7361 1.00007C16.4496 1.00794 18.0907 1.69214 19.3024 2.90381C20.5141 4.11548 21.1983 5.75659 21.2061 7.47013C21.214 9.18368 20.5449 10.831 19.3444 12.0538L14.7484 16.6498" stroke="#F37021" stroke-width="2" stroke-linecap="round" stroke-linejoin="round"/>
</svg>
